<svg id="eLHmq1h4P3R1" xmlns="http://www.w3.org/2000/svg" xmlns:xlink="http://www.w3.org/1999/xlink" viewBox="0 0 473.95557 75.421875" shape-rendering="geometricPrecision" text-rendering="geometricPrecision"><style><![CDATA[#eLHmq1h4P3R3 {animation: eLHmq1h4P3R3_c_o 3000ms linear 1 normal forwards}@keyframes eLHmq1h4P3R3_c_o { 0% {opacity: 0} 13.333333% {opacity: 1} 100% {opacity: 1}} #eLHmq1h4P3R4 {animation: eLHmq1h4P3R4_c_o 3000ms linear 1 normal forwards}@keyframes eLHmq1h4P3R4_c_o { 0% {opacity: 0} 3.333333% {opacity: 0} 16.666667% {opacity: 1} 100% {opacity: 1}} #eLHmq1h4P3R5 {animation: eLHmq1h4P3R5_c_o 3000ms linear 1 normal forwards}@keyframes eLHmq1h4P3R5_c_o { 0% {opacity: 0} 6.666667% {opacity: 0} 20% {opacity: 1} 100% {opacity: 1}} #eLHmq1h4P3R6 {animation: eLHmq1h4P3R6_c_o 3000ms linear 1 normal forwards}@keyframes eLHmq1h4P3R6_c_o { 0% {opacity: 0} 10% {opacity: 0} 23.333333% {opacity: 1} 100% {opacity: 1}} #eLHmq1h4P3R7 {animation: eLHmq1h4P3R7_c_o 3000ms linear 1 normal forwards}@keyframes eLHmq1h4P3R7_c_o { 0% {opacity: 0} 13.333333% {opacity: 0} 26.666667% {opacity: 1} 100% {opacity: 1}} #eLHmq1h4P3R8 {animation: eLHmq1h4P3R8_c_o 3000ms linear 1 normal forwards}@keyframes eLHmq1h4P3R8_c_o { 0% {opacity: 0} 16.666667% {opacity: 0} 30% {opacity: 1} 100% {opacity: 1}} #eLHmq1h4P3R9 {animation: eLHmq1h4P3R9_c_o 3000ms linear 1 normal forwards}@keyframes eLHmq1h4P3R9_c_o { 0% {opacity: 0} 20% {opacity: 0} 33.333333% {opacity: 1} 100% {opacity: 1}} #eLHmq1h4P3R10 {animation: eLHmq1h4P3R10_c_o 3000ms linear 1 normal forwards}@keyframes eLHmq1h4P3R10_c_o { 0% {opacity: 0} 23.333333% {opacity: 0} 36.666667% {opacity: 1} 100% {opacity: 1}} #eLHmq1h4P3R11 {animation: eLHmq1h4P3R11_c_o 3000ms linear 1 normal forwards}@keyframes eLHmq1h4P3R11_c_o { 0% {opacity: 0} 26.666667% {opacity: 0} 40% {opacity: 1} 100% {opacity: 1}} #eLHmq1h4P3R12 {animation: eLHmq1h4P3R12_c_o 3000ms linear 1 normal forwards}@keyframes eLHmq1h4P3R12_c_o { 0% {opacity: 0} 30% {opacity: 0} 43.333333% {opacity: 1} 100% {opacity: 1}} #eLHmq1h4P3R13 {animation: eLHmq1h4P3R13_c_o 3000ms linear 1 normal forwards}@keyframes eLHmq1h4P3R13_c_o { 0% {opacity: 0} 33.333333% {opacity: 0} 46.666667% {opacity: 1} 100% {opacity: 1}} #eLHmq1h4P3R14 {animation: eLHmq1h4P3R14_c_o 3000ms linear 1 normal forwards}@keyframes eLHmq1h4P3R14_c_o { 0% {opacity: 0} 36.666667% {opacity: 0} 50% {opacity: 1} 100% {opacity: 1}} #eLHmq1h4P3R15 {animation: eLHmq1h4P3R15_c_o 3000ms linear 1 normal forwards}@keyframes eLHmq1h4P3R15_c_o { 0% {opacity: 0} 40% {opacity: 0} 53.333333% {opacity: 1} 100% {opacity: 1}} #eLHmq1h4P3R16 {animation: eLHmq1h4P3R16_c_o 3000ms linear 1 normal forwards}@keyframes eLHmq1h4P3R16_c_o { 0% {opacity: 0} 43.333333% {opacity: 0} 56.666667% {opacity: 1} 100% {opacity: 1}} #eLHmq1h4P3R17 {animation: eLHmq1h4P3R17_c_o 3000ms linear 1 normal forwards}@keyframes eLHmq1h4P3R17_c_o { 0% {opacity: 0} 46.666667% {opacity: 0} 60% {opacity: 1} 100% {opacity: 1}} #eLHmq1h4P3R18 {animation: eLHmq1h4P3R18_c_o 3000ms linear 1 normal forwards}@keyframes eLHmq1h4P3R18_c_o { 0% {opacity: 0} 50% {opacity: 0} 63.333333% {opacity: 1} 100% {opacity: 1}} #eLHmq1h4P3R19 {animation: eLHmq1h4P3R19_c_o 3000ms linear 1 normal forwards}@keyframes eLHmq1h4P3R19_c_o { 0% {opacity: 0} 53.333333% {opacity: 0} 66.666667% {opacity: 1} 100% {opacity: 1}} #eLHmq1h4P3R20 {animation: eLHmq1h4P3R20_c_o 3000ms linear 1 normal forwards}@keyframes eLHmq1h4P3R20_c_o { 0% {opacity: 0} 56.666667% {opacity: 0} 70% {opacity: 1} 100% {opacity: 1}} #eLHmq1h4P3R21 {animation: eLHmq1h4P3R21_c_o 3000ms linear 1 normal forwards}@keyframes eLHmq1h4P3R21_c_o { 0% {opacity: 0} 60% {opacity: 0} 73.333333% {opacity: 1} 100% {opacity: 1}} #eLHmq1h4P3R22 {animation: eLHmq1h4P3R22_c_o 3000ms linear 1 normal forwards}@keyframes eLHmq1h4P3R22_c_o { 0% {opacity: 0} 63.333333% {opacity: 0} 76.666667% {opacity: 1} 100% {opacity: 1}} #eLHmq1h4P3R23 {animation: eLHmq1h4P3R23_c_o 3000ms linear 1 normal forwards}@keyframes eLHmq1h4P3R23_c_o { 0% {opacity: 0} 66.666667% {opacity: 0} 80% {opacity: 1} 100% {opacity: 1}} #eLHmq1h4P3R24 {animation: eLHmq1h4P3R24_c_o 3000ms linear 1 normal forwards}@keyframes eLHmq1h4P3R24_c_o { 0% {opacity: 0} 70% {opacity: 0} 83.333333% {opacity: 1} 100% {opacity: 1}} #eLHmq1h4P3R25 {animation: eLHmq1h4P3R25_c_o 3000ms linear 1 normal forwards}@keyframes eLHmq1h4P3R25_c_o { 0% {opacity: 0} 73.333333% {opacity: 0} 86.666667% {opacity: 1} 100% {opacity: 1}}]]></style><g transform="translate(-60.521-383.289)"><path id="eLHmq1h4P3R3" d="M93.765625,429.01562l31.550785-33.89843l31.55078,33.89453c-9.92188-4.05469-20.55469-6.17578-31.52735-6.17578-10.99218,0-21.64453,2.125-31.574215,6.17968m95.386715,28.33985c1.39063-1.51953,1.40625-3.87891-.0234-5.41406l-63.8125-68.5586-63.72266,68.46875c-1.433594,1.53516-1.417969,3.89063-.02734,5.41406.06641.0742.140625.14844.214844.22266.0039.004.0078.008.01172.0117.0039,0,.0039,0,.0039,0c.03125.0352.0625.0703.09375.0977c1.648437,1.47656,4.175781,1.33984,5.644531-.3125c15.285156-17.0625,35.812505-26.45704,57.804685-26.45704c21.98438,0,42.52344,9.42969,57.83985,26.55079.78906.8789,1.8789,1.33203,2.98047,1.33203.94531,0,1.90234-.33594,2.66406-1.01953.0352-.0312.0664-.0664.0977-.0977c0-.004.004-.004.004-.004l.004-.004c.0781-.0742.15625-.15235.22265-.23047" transform="translate(-.438112 0)" opacity="0"/><path id="eLHmq1h4P3R4" d="M235.875,424.08203l-15.20313-37.66406h-.22656c.14844,2.30078.22656,4.66797.22656,7.08203v30.58203h-2.73828v-40.79297h4.41016l14.45312,35.88672h.16797l14.45313-35.88672h4.29687v40.79297h-2.87109v-30.91406c0-2.15625.10937-4.39063.33594-6.69531h-.22657l-15.26171,37.60937Zm0,0" opacity="0"/><path id="eLHmq1h4P3R5" d="M280.44141,424.08594h2.84765v-40.79688h-2.84765Zm0,0" opacity="0"/><path id="eLHmq1h4P3R6" d="M337.69922,424.08203h-2.875l-24.16406-36.21875h-.22266c.22266,4.32031.33203,7.57422.33203,9.76953v26.44922h-2.73047v-40.79297h2.84375l24.13672,36.16016h.16797c-.16797-3.34375-.25391-6.52735-.25391-9.53906v-26.6211h2.76563Zm0,0" transform="translate(0-.326063)" opacity="0"/><path id="eLHmq1h4P3R7" d="M390.32812,403.40625c0-5.83984-1.48828-10.23438-4.45312-13.18359-2.96484-2.94532-7.32422-4.42188-13.07031-4.42188h-7.50782v35.77344h6.75391c12.18359,0,18.27734-6.0586,18.27734-18.16797m3.09375-.11328c0,6.84765-1.79296,12.02344-5.38281,15.53125-3.59375,3.50781-8.86719,5.25781-15.82031,5.25781h-9.76953v-40.79297h11.02344c6.51171,0,11.46093,1.70313,14.85937,5.10547c3.39453,3.40625,5.08984,8.37109,5.08984,14.89844" opacity="0"/><path id="eLHmq1h4P3R8" d="M418.84375,424.08203h-2.84766v-40.79297h22.35157v2.6211h-19.50391v17.30078h18.41797v2.65234h-18.41797Zm0,0" opacity="0"/><path id="eLHmq1h4P3R9" d="M487.87891,383.28906v26.39453c0,4.69141-1.35938,8.35547-4.07422,10.9961s-6.5,3.96093-11.35547,3.96093c-4.72656,0-8.41406-1.32421-11.0625-3.97265-2.65235-2.65235-3.97656-6.35156-3.97656-11.09375v-26.28516h2.87109v26.39453c0,3.92969,1.08984,6.98438,3.26562,9.16797c2.17579,2.1875,5.25391,3.28125,9.23438,3.28125c3.89062,0,6.90234-1.07812,9.04297-3.22265c2.14062-2.14844,3.20703-5.12891,3.20703-8.94532v-26.67578Zm0,0" opacity="0"/><path id="eLHmq1h4P3R10" d="M512.18359,424.08203v-40.79297h2.84766v38.11328h19.44531v2.67969Zm0,0" opacity="0"/><path id="eLHmq1h4P3R11" d="M219.14844,448.48828h2.39062c1.95703,0,3.375-.32422,4.2461-.97266.87109-.64453,1.30859-1.69531,1.30859-3.14453c0-1.33984-.41016-2.33203-1.23828-2.98047-.82031-.64453-2.09766-.96875-3.82813-.96875h-2.8789Zm9.2539-4.16406c0,1.67969-.57031,2.96875-1.71484,3.86328-1.14063.89844-2.75781,1.34375-4.85156,1.34375h-2.6875v7.18359h-1.21485v-17.38672h4.26172c4.13672,0,6.20703,1.66407,6.20703,4.9961" opacity="0"/><path id="eLHmq1h4P3R12" d="M247.58594,456.71484h-9.50391v-17.38672h9.50391v1.11719h-8.29297v6.57813h7.82812v1.11718h-7.82812v7.45704h8.29297Zm0,0" opacity="0"/><path id="eLHmq1h4P3R13" d="M259.16406,449.48437h6.22266l-2.36719-6.26953c-.19922-.49218-.4375-1.17187-.71484-2.04297-.21094.75782-.44922,1.44922-.70313,2.06641Zm6.625,1.09375h-7.0664l-2.42579,6.13672h-1.34375l6.99219-17.46093h.77735l6.85156,17.46093h-1.3711Zm0,0" opacity="0"/><path id="eLHmq1h4P3R14" d="M289.62109,456.71484h-1.48437l-6.67188-9.17968-2.32031,2.04687v7.13281h-1.21484v-17.38672h1.21484v9.03907l1.92578-1.92578l6.8125-7.11329h1.55078l-7.125,7.34766Zm0,0" opacity="0"/><path id="eLHmq1h4P3R15" d="M311.41797,448.48828h2.39062c1.95703,0,3.3711-.32422,4.24219-.97266.875-.64453,1.3125-1.69531,1.3125-3.14453c0-1.33984-.41406-2.33203-1.23828-2.98047-.82422-.64453-2.10156-.96875-3.83203-.96875h-2.875Zm9.25-4.16406c0,1.67969-.57031,2.96875-1.71094,3.86328-1.14062.89844-2.76172,1.34375-4.85547,1.34375h-2.68359v7.18359h-1.21875v-17.38672h4.26172c4.14062,0,6.20703,1.66407,6.20703,4.9961" opacity="0"/><path id="eLHmq1h4P3R16" d="M339.85156,456.71484h-9.5039v-17.38672h9.5039v1.11719h-8.29297v6.57813h7.82813v1.11718h-7.82813v7.45704h8.29297Zm0,0" opacity="0"/><path id="eLHmq1h4P3R17" d="M350.89844,448.09375h3.3164c1.46875,0,2.60547-.32813,3.41407-.98047.80859-.65625,1.21484-1.62109,1.21484-2.89844c0-1.32422-.39844-2.28906-1.19141-2.89062-.78906-.60156-2.08593-.90235-3.875-.90235h-2.8789Zm0,1.04687v7.57813h-1.21485v-17.39063h4.14063c2.15625,0,3.7539.39454,4.78125,1.19532c1.03125.79687,1.54687,1.99609,1.54687,3.59765c0,1.16407-.30859,2.14844-.92187,2.94922-.61719.80469-1.55078,1.375-2.80078,1.72656l4.72265,7.92188h-1.45312l-4.48438-7.57813Zm0,0" transform="translate(0 0.000001)" opacity="0"/><path id="eLHmq1h4P3R18" d="M371.26953,456.71484h-1.21484v-17.38672h9.53125v1.11719h-8.31641v7.375h7.85156v1.12891h-7.85156Zm0,0" transform="translate(.000001 0)" opacity="0"/><path id="eLHmq1h4P3R19" d="M388.57031,447.99609c0,2.49219.55469,4.41797,1.66406,5.77735s2.70704,2.03906,4.78125,2.03906c2.09766,0,3.69532-.67578,4.80079-2.01953c1.10937-1.34766,1.66015-3.28125,1.66015-5.79688c0-2.5039-.55078-4.42578-1.66015-5.76172-1.10547-1.33593-2.69532-2.0039-4.77735-2.0039-2.0664,0-3.66406.67578-4.78515,2.01953-1.125,1.35156-1.6836,3.26562-1.6836,5.74609m14.22656,0c0,2.76172-.6914,4.94532-2.07031,6.55078s-3.28125,2.41016-5.71094,2.41016c-2.41796,0-4.3164-.80469-5.69531-2.41016-1.38281-1.60546-2.07031-3.79687-2.07031-6.57421c0-2.76563.69531-4.94532,2.08594-6.53516c1.39453-1.58984,3.29297-2.38281,5.70312-2.38281c2.42969,0,4.32813.79687,5.69922,2.39453s2.05859,3.78125,2.05859,6.54687" transform="translate(.000001 0)" opacity="0"/><path id="eLHmq1h4P3R20" d="M413.90234,448.09375h3.32032c1.46484,0,2.60156-.32813,3.41406-.98047.80469-.65625,1.21094-1.62109,1.21094-2.89844c0-1.32422-.39844-2.28906-1.1875-2.89062-.79688-.60156-2.08985-.90235-3.87891-.90235h-2.87891Zm0,1.04687v7.57813h-1.21484v-17.39063h4.14062c2.15625,0,3.75.39454,4.78125,1.19532c1.03125.79687,1.54688,1.99609,1.54688,3.59765c0,1.16407-.30859,2.14844-.92188,2.94922-.61328.80469-1.54687,1.375-2.80078,1.72656l4.72266,7.92188h-1.45313l-4.48437-7.57813Zm0,0" transform="translate(0 0.000001)" opacity="0"/><path id="eLHmq1h4P3R21" d="M440.71094,456.71484l-6.48438-16.05468h-.0976c.0664.98046.0976,1.98828.0976,3.01953v13.03515h-1.16797v-17.38672h1.88282l6.16015,15.29688h.0703l6.16407-15.29688h1.83203v17.38672h-1.22656v-13.17578c0-.92187.0469-1.87109.14062-2.85937h-.0937l-6.50781,16.03515Zm0,0" opacity="0"/><path id="eLHmq1h4P3R22" d="M461.71875,449.48437h6.22266l-2.36719-6.26953c-.19922-.49218-.4375-1.17187-.71485-2.04297-.21093.75782-.44921,1.44922-.70312,2.06641Zm6.62891,1.09375h-7.06641l-2.42578,6.13672h-1.34766l6.9961-17.46093h.77343l6.85157,17.46093h-1.36719Zm0,0" opacity="0"/><path id="eLHmq1h4P3R23" d="M493.12891,456.71484h-1.22266l-10.30078-15.4375h-.0937c.0937,1.83985.14062,3.22657.14062,4.16016v11.27734h-1.16406v-17.38672h1.21094l10.28906,15.41407h.0703c-.0703-1.42578-.10547-2.78125-.10547-4.06641v-11.34766h1.17579Zm0,0" opacity="0"/><path id="eLHmq1h4P3R24" d="M511.375,440.17187c-2.17969,0-3.89844.69922-5.15234,2.08985-1.25391,1.39844-1.87891,3.3125-1.87891,5.73437c0,2.48438.58984,4.41016,1.77344,5.78516c1.17968,1.36719,2.87109,2.05469,5.0664,2.05469c1.45703,0,2.79688-.1836,4.01953-.5586v1.07032c-1.14843.40234-2.58593.60937-4.30468.60937-2.44532,0-4.36719-.79297-5.76953-2.36719-1.40625-1.58203-2.10547-3.78515-2.10547-6.61718c0-1.76563.33593-3.32422,1.0039-4.67188.66797-1.35156,1.63282-2.39062,2.89063-3.125c1.25781-.73047,2.71875-1.09766,4.38281-1.09766c1.69922,0,3.21484.31641,4.55469.94922l-.48828,1.09766c-1.26563-.63672-2.59766-.95313-3.99219-.95313" opacity="0"/><path id="eLHmq1h4P3R25" d="M534.47656,456.71484h-9.5v-17.38672h9.5v1.11719h-8.28906v6.57813h7.82812v1.11718h-7.82812v7.45704h8.28906Zm0,0" transform="translate(.000001 0)" opacity="0"/></g></svg>